<svg height="512" viewBox="0 0 512 512" width="512" xmlns="http://www.w3.org/2000/svg"><g id="flat"><rect fill="#e2e2e2" height="464" rx="24" width="272" x="120" y="24"/><path d="m392 48v416a24.006 24.006 0 0 1 -24 24h-16a24.006 24.006 0 0 0 24-24v-416a24.006 24.006 0 0 0 -24-24h16a24.006 24.006 0 0 1 24 24z" fill="#cbcbcb"/><path d="m120 56h272v368h-272z" fill="#a6deff"/><path d="m376 56h16v368h-16z" fill="#92d1f7"/><path d="m116.869 289.391 27.131 22.609v-40h136a24 24 0 0 0 24-24v-104a24 24 0 0 0 -24-24h-160a24 24 0 0 0 -24 24v100.834a58 58 0 0 0 20.869 44.557z" fill="#ea9d2d"/><path d="m395.131 190.609-27.131-22.609v40h-136a24 24 0 0 0 -24 24v104a24 24 0 0 0 24 24h160a24 24 0 0 0 24-24v-100.834a58 58 0 0 0 -20.869-44.557z" fill="#fbb540"/><circle cx="256" cy="456" fill="#cbcbcb" r="24"/><circle cx="256" cy="240" fill="#029532" r="64"/><path d="m256 168a72 72 0 1 0 72 72 72.081 72.081 0 0 0 -72-72zm54.857 82.286h-19.764c.221-3.379.336-6.815.336-10.286s-.115-6.907-.336-10.286h19.764c.06 0 .119-.007.178-.009a55.4 55.4 0 0 1 0 20.59c-.059-.002-.118-.009-.178-.009zm-54.857 45.714c-2.808 0-7.646-3.64-12.042-13.9a83.765 83.765 0 0 1 -4.824-15.818h33.732a83.765 83.765 0 0 1 -4.824 15.818c-4.396 10.26-9.234 13.9-12.042 13.9zm-19.053-45.714c-.244-3.36-.376-6.795-.376-10.286s.132-6.926.376-10.286h38.106c.244 3.36.376 6.795.376 10.286s-.132 6.926-.376 10.286zm-35.982.009a55.4 55.4 0 0 1 0-20.59c.059 0 .118.009.178.009h19.764c-.221 3.379-.336 6.815-.336 10.286s.115 6.907.336 10.286h-19.764c-.06 0-.119.007-.178.014zm55.035-66.295c2.808 0 7.646 3.64 12.042 13.9a83.765 83.765 0 0 1 4.824 15.818h-33.732a83.765 83.765 0 0 1 4.824-15.818c4.396-10.26 9.234-13.9 12.042-13.9zm49.429 29.714h-16.275a103.134 103.134 0 0 0 -6.406-22.12c-.15-.35-.308-.68-.461-1.022a56.384 56.384 0 0 1 23.142 23.142zm-75.718-23.141c-.152.341-.31.672-.459 1.021a103.134 103.134 0 0 0 -6.406 22.12h-16.275a56.389 56.389 0 0 1 23.14-23.141zm-23.14 75.713h16.275a103.134 103.134 0 0 0 6.406 22.12c.149.349.307.68.459 1.021a56.389 56.389 0 0 1 -23.14-23.141zm75.716 23.142c.153-.342.311-.672.461-1.022a103.134 103.134 0 0 0 6.406-22.12h16.275a56.384 56.384 0 0 1 -23.142 23.142z" fill="#027e2a"/><g fill="#ea9d2d"><circle cx="300" cy="324" r="12"/><circle cx="340" cy="324" r="12"/><circle cx="380" cy="324" r="12"/></g><circle cx="132" cy="156" fill="#fbb540" r="12"/><circle cx="172" cy="156" fill="#fbb540" r="12"/><circle cx="212" cy="156" fill="#fbb540" r="12"/></g></svg>